<?xml version="1.0" encoding="utf-8"?>
<!-- Generator: Adobe Illustrator 26.0.0, SVG Export Plug-In . SVG Version: 6.00 Build 0)  -->
<svg version="1.1" id="Capa_1" xmlns="http://www.w3.org/2000/svg" xmlns:xlink="http://www.w3.org/1999/xlink" x="0px" y="0px"
	 viewBox="0 0 200 200" style="enable-background:new 0 0 200 200;" xml:space="preserve">
<style type="text/css">
	.st0{fill:#F5E74C;}
	.st1{fill:#90BD40;}
</style>
<circle class="st0" cx="101.1" cy="100.7" r="91"/>
<g>
	<path class="st1" d="M99.2,66.9c2.7,3.8,5.4,9.7,4.4,13.3c-0.6,1.9-1.4,3.7-2.4,5.5l6.6,5.1c4.5-4.1,10.1-6.4,17.3-6.9
		c4.7-0.3,9.4-0.9,14-1.9c13.8-3,23.7-11,32.9-22.7c-27.5-5.3-46.5,4.3-62.8,23.6c1.4-17,2.7-32-7.5-46.3c-1.5,0.5-2,0.5-2.3,0.8
		c-0.5,0.4-0.9,1-1.3,1.5C91.8,47.9,92.1,57,99.2,66.9z"/>
	<g>
		<path class="st1" d="M89.8,75.1c7.5,5.3,16,9.6,24,14.4c2.7,1.6,5.4,3.1,8,4.6c11.9,7.1,16.5,17,14.6,29c-2.1,13-9.2,24.2-21,33.1
			c-16.8,12.7-37.8,11.4-52.1-2.8c-7.1-7.1-11.7-15.3-15-24.1c-4-10.7-6.1-21.6-6.1-32.9c0.1-11.7,1.9-23.2,8.1-34
			c3.8-6.6,9-12.3,16.8-16.2C88.6,38.8,79.3,67.7,89.8,75.1z"/>
	</g>
</g>
</svg>
