<?xml version="1.0" encoding="utf-8"?>
<!-- Generator: Adobe Illustrator 26.0.0, SVG Export Plug-In . SVG Version: 6.00 Build 0)  -->
<svg version="1.1" id="Capa_1" xmlns="http://www.w3.org/2000/svg" xmlns:xlink="http://www.w3.org/1999/xlink" x="0px" y="0px"
	 viewBox="0 0 200 200" style="enable-background:new 0 0 200 200;" xml:space="preserve">
<style type="text/css">
	.st0{fill:#F5E74C;}
	.st1{fill:#90BD40;}
</style>
<circle class="st0" cx="101.1" cy="100.7" r="91"/>
<g>
	<path class="st1" d="M73.1,93.1c3.1-9.6,5.9-19,9.3-28.2c3.9-10.4,10-19.5,18.4-26.8c2-1.7,4.2-3.3,6.4-4.7
		c12.9-7.8,23.7-3.8,28.1,10.6c4.6,15,3.1,30.1-1.3,45.2c-2.7,9.2-6.1,18.2-9.4,27.8c4-0.9,7.7-1.8,11.4-2.6c4-0.9,5.7,0.8,4.7,4.9
		c-6.2,25.1-20.7,43-43.7,53.2c-1.5,0.7-3.7-0.5-5.6-0.9c1.2-1.6,2.2-4,3.7-4.7c17.5-8.2,30.1-21.4,37.2-40c0.7-1.7,1.1-3.5,2.1-6.6
		c-6,2-11.1,3.4-16,5.4c-18,7.5-33,19.3-45.5,35c-4.6,5.7-5.3,5.7-10.3,0.6c-18.9-19.2-22.3-51.3-7.7-74c5.2-8.1,5.8-8.2,12-1.6
		C69,88,70.9,90.5,73.1,93.1z M82.2,140.7c10.7-6.5,21.2-12.9,31.7-19.4c1.1-0.7,2.3-2,2.7-3.3c4.1-11.2,8.7-22.3,12-33.7
		c3.9-13.1,4.8-26.5,0.7-39.6c-2.9-9.4-9.6-12.7-17.9-7.5c-6.2,3.9-12.1,9.2-16.6,15.2c-10.3,13.5-13.6,30-17.8,46
		c-0.2,0.8-0.2,2,0.2,2.7C83.2,113.8,83.2,127.5,82.2,140.7z M60.6,85.7c-14.5,23.5-10.5,57.2,8.3,72.2c4.2-4.4,8-8.8,7.5-15.7
		c-0.3-4.5,0.5-9.1,0.6-13.7C77.5,111.8,71.7,97.9,60.6,85.7z"/>
</g>
</svg>
